# Blender v2.79 (sub 0) OBJ File: 'untitled.blend'
# www.blender.org
mtllib shark_body.mtl
o Cube_Cube.002
v 0.309766 -0.111679 1.079313
v 0.225400 -0.263896 1.079313
v 0.225400 -0.257185 0.709711
v 0.309766 -0.095656 0.709711
v 0.394133 0.040538 1.079313
v 0.225400 0.349010 1.079313
v -0.006413 -0.299756 1.079313
v -0.006413 0.426507 1.079313
v -0.006413 -0.292304 0.709711
v 0.225400 0.387932 0.709711
v -0.006413 0.469726 0.709711
v 0.217679 -0.229238 0.306933
v -0.006413 -0.261271 0.306933
v -0.006413 -0.178543 -0.145286
v 0.182394 -0.154737 -0.145286
v 0.217679 0.382514 0.306933
v -0.006413 0.463711 0.306933
v 0.503185 -0.101583 0.402476
v 0.505609 -0.104075 0.549344
v 0.585708 -0.179260 0.392437
v 0.584490 -0.179425 0.322583
v -0.006413 0.601727 0.154249
v 0.076294 0.578201 0.154249
v 0.018180 0.770412 -0.103496
v -0.006413 0.776119 -0.103496
v 0.302046 -0.075428 0.306933
v 0.266761 -0.037993 -0.145286
v -0.006413 0.381718 -0.145286
v 0.182394 0.308675 -0.145286
v 0.351127 0.078750 -0.145286
v 0.386412 0.078382 0.306933
v 0.394133 0.065873 0.709711
v 0.018364 0.758549 -0.176150
v -0.006413 0.762946 -0.176150
v 0.079184 0.529297 -0.117448
v -0.006413 0.547422 -0.117448
v 0.307822 -0.090495 0.607512
v 0.347168 -0.014377 0.607527
v 0.304020 -0.080532 0.409130
v 0.264104 -0.152543 0.409145
v 0.268477 -0.166613 0.607497
v 0.343936 -0.008522 0.409115
v 0.576742 -0.191435 0.392432
v 0.567776 -0.203609 0.392427
v 0.565883 -0.203409 0.322594
v 0.575186 -0.191417 0.322589
v 0.475546 -0.136307 0.402487
v 0.451286 -0.177191 0.549322
v 0.447907 -0.171030 0.402498
v 0.478448 -0.140633 0.549333
v -0.322592 -0.111679 1.079313
v -0.322592 -0.095656 0.709711
v -0.238226 -0.257185 0.709711
v -0.238226 -0.263896 1.079313
v -0.406959 0.040538 1.079313
v -0.238226 0.349010 1.079313
v -0.238226 0.387932 0.709711
v -0.230505 -0.229238 0.306933
v -0.195220 -0.154737 -0.145286
v -0.230505 0.382514 0.306933
v -0.516011 -0.101583 0.402476
v -0.597316 -0.179425 0.322583
v -0.598534 -0.179260 0.392437
v -0.518435 -0.104075 0.549344
v -0.031006 0.770412 -0.103496
v -0.089120 0.578201 0.154249
v -0.314872 -0.075428 0.306933
v -0.279587 -0.037993 -0.145286
v -0.195220 0.308675 -0.145286
v -0.363953 0.078750 -0.145286
v -0.399238 0.078382 0.306933
v -0.406959 0.065873 0.709711
v -0.031190 0.758549 -0.176150
v -0.092010 0.529297 -0.117448
v -0.320648 -0.090495 0.607512
v -0.359994 -0.014377 0.607527
v -0.316846 -0.080532 0.409130
v -0.276930 -0.152543 0.409145
v -0.281303 -0.166613 0.607497
v -0.356762 -0.008522 0.409115
v -0.589568 -0.191435 0.392432
v -0.588012 -0.191417 0.322589
v -0.578709 -0.203409 0.322594
v -0.580602 -0.203609 0.392427
v -0.488372 -0.136307 0.402487
v -0.464112 -0.177191 0.549322
v -0.460733 -0.171030 0.402498
v -0.491274 -0.140633 0.549333
vt 0.052079 0.233976
vt 0.102585 0.229031
vt 0.101474 0.318283
vt 0.050179 0.323247
vt 0.107826 0.415483
vt 0.057850 0.420292
vt 0.495393 0.870092
vt 0.461103 0.879146
vt 0.490012 0.843274
vt 0.506266 0.838737
vt 0.240151 0.350207
vt 0.223985 0.354876
vt 0.223377 0.277471
vt 0.228305 0.276217
vt 0.190018 0.410769
vt 0.191799 0.520458
vt 0.123216 0.524838
vt 0.186953 0.313487
vt 0.185573 0.224297
vt 0.007250 0.520614
vt 0.012147 0.520101
vt 0.015536 0.537554
vt 0.010851 0.538065
vt 0.052293 0.455965
vt 0.066143 0.521168
vt 0.598172 0.842515
vt 0.577485 0.838149
vt 0.577485 0.787480
vt 0.583473 0.788540
vt 0.623116 0.896262
vt 0.577485 0.878664
vt 0.250420 0.397648
vt 0.208251 0.412113
vt 0.758196 0.578219
vt 0.778816 0.579883
vt 0.799235 0.606322
vt 0.755391 0.602773
vt 0.783400 0.532201
vt 0.808564 0.509496
vt 0.145086 0.903724
vt 0.148664 0.903827
vt 0.148664 0.920682
vt 0.145093 0.920572
vt 0.914981 0.432181
vt 0.904429 0.430407
vt 0.912740 0.403275
vt 0.916355 0.403836
vt 0.884743 0.773561
vt 0.867542 0.742497
vt 0.877058 0.715194
vt 0.884743 0.730195
vt 0.435760 0.881969
vt 0.426184 0.884667
vt 0.419034 0.840503
vt 0.422212 0.839620
vt 0.427723 0.925983
vt 0.410110 0.928256
vt 0.388263 0.905274
vt 0.409306 0.867382
vt 0.923283 0.475034
vt 0.903444 0.475034
vt 0.506266 0.910850
vt 0.459836 0.922644
vt 0.943122 0.475034
vt 0.925534 0.433954
vt 0.445336 0.923711
vt 0.445336 0.879270
vt 0.425391 0.838737
vt 0.919971 0.404397
vt 0.141509 0.903620
vt 0.141521 0.920463
vt 0.763626 0.530556
vt 0.766416 0.506002
vt 0.779392 0.396695
vt 0.813396 0.399929
vt 0.786928 0.694871
vt 0.745130 0.691388
vt 0.240460 0.568895
vt 0.242846 0.484306
vt 0.301995 0.486583
vt 0.299207 0.570725
vt 0.307799 0.400070
vt 0.672094 0.837777
vt 0.680638 0.865580
vt 0.665744 0.863051
vt 0.640458 0.832662
vt 0.234302 0.276150
vt 0.260725 0.350432
vt 0.314749 0.310700
vt 0.373762 0.330077
vt 0.373762 0.427165
vt 0.369637 0.515542
vt 0.365577 0.598271
vt 0.230803 0.261843
vt 0.236718 0.261634
vt 0.945973 0.726948
vt 0.902759 0.668975
vt 0.902571 0.651310
vt 0.945973 0.660828
vt 0.556798 0.842515
vt 0.571497 0.788540
vt 0.531854 0.896262
vt 0.270677 0.296562
vt 0.437093 0.576384
vt 0.439042 0.601061
vt 0.395050 0.602948
vt 0.416410 0.577271
vt 0.389034 0.505662
vt 0.413445 0.529354
vt 0.841679 0.732084
vt 0.841967 0.715195
vt 0.845590 0.715194
vt 0.845302 0.732084
vt 0.933382 0.036162
vt 0.932008 0.007817
vt 0.935624 0.007256
vt 0.943935 0.034389
vt 0.929686 0.593628
vt 0.951866 0.561980
vt 0.963932 0.561011
vt 0.954130 0.591957
vt 0.842136 0.768773
vt 0.853041 0.768773
vt 0.917188 0.634601
vt 0.922046 0.590716
vt 0.931804 0.636798
vt 0.963932 0.634998
vt 0.925081 0.079016
vt 0.944919 0.079016
vt 0.680638 0.794194
vt 0.637617 0.787480
vt 0.905242 0.079016
vt 0.922830 0.037936
vt 0.902571 0.632404
vt 0.914406 0.587804
vt 0.831230 0.768773
vt 0.838057 0.732084
vt 0.928392 0.008379
vt 0.838343 0.715197
vt 0.431391 0.503805
vt 0.433325 0.528482
vt 0.388263 0.395986
vt 0.422770 0.394276
vt 0.404326 0.692061
vt 0.446346 0.690211
vt 0.703332 0.687905
vt 0.711547 0.599224
vt 0.645273 0.511111
vt 0.588893 0.508706
vt 0.597944 0.446814
vt 0.654290 0.449092
vt 0.663239 0.385147
vt 0.608857 0.383270
vt 0.623302 0.320088
vt 0.668975 0.321126
vt 0.724267 0.502507
vt 0.745387 0.393462
vt 0.743851 0.528912
vt 0.737576 0.576555
vt 0.483034 0.599173
vt 0.488366 0.688360
vt 0.535796 0.518522
vt 0.544814 0.456504
vt 0.473748 0.501948
vt 0.457277 0.392566
vt 0.484214 0.389680
vt 0.506519 0.498507
vt 0.517353 0.595606
vt 0.453204 0.527610
vt 0.457775 0.575497
vn 0.3232 0.9406 0.1045
vn 0.3366 0.9415 -0.0166
vn 0.6852 0.7284 -0.0037
vn 0.2197 0.8065 0.5488
vn 0.8404 0.5310 -0.1087
vn 0.8802 0.4744 -0.0127
vn 0.8809 0.4715 0.0410
vn 0.1977 0.9661 -0.1662
vn 0.9684 0.2470 -0.0349
vn -0.0534 -0.2617 -0.9637
vn 0.0518 0.1560 -0.9864
vn 0.8713 0.4760 -0.1197
vn 0.2420 0.7088 0.6626
vn 0.8863 -0.4614 -0.0402
vn 0.8862 -0.4613 -0.0426
vn 0.8863 -0.4614 -0.0401
vn 0.8813 -0.4716 -0.0305
vn 0.7976 -0.6030 -0.0179
vn 0.7975 -0.6029 -0.0206
vn -0.4547 0.3593 -0.8150
vn -0.4551 0.3596 -0.8146
vn -0.4548 0.3593 -0.8149
vn -0.2639 -0.9643 -0.0219
vn 0.6592 -0.4889 0.5713
vn 0.6591 -0.4888 0.5715
vn 0.2823 -0.1669 0.9447
vn -0.0888 -0.9945 -0.0563
vn -0.0323 0.0202 -0.9993
vn -0.0313 0.0196 -0.9993
vn -0.0329 0.0206 -0.9992
vn 0.5006 0.8656 0.0127
vn -0.0331 0.0207 -0.9992
vn 0.2685 -0.1587 0.9501
vn 0.6593 -0.4890 0.5711
vn -0.4543 0.3590 -0.8153
vn 0.7976 -0.6030 -0.0152
vn 0.8753 -0.4817 -0.0434
vn 0.8753 -0.4818 -0.0409
vn 0.8753 -0.4818 -0.0410
vn 0.8452 -0.5271 -0.0880
vn 0.8804 -0.4735 -0.0265
vn 0.8802 -0.4739 -0.0263
vn 0.8803 -0.4742 -0.0148
vn -0.3232 0.9406 0.1045
vn -0.3366 0.9415 -0.0166
vn -0.6852 0.7284 -0.0037
vn -0.2197 0.8065 0.5488
vn -0.8404 0.5310 -0.1087
vn -0.8802 0.4744 -0.0127
vn -0.8809 0.4715 0.0410
vn -0.1977 0.9661 -0.1662
vn -0.9684 0.2470 -0.0349
vn 0.0534 -0.2617 -0.9637
vn -0.0518 0.1560 -0.9864
vn -0.8713 0.4760 -0.1197
vn -0.2420 0.7088 0.6626
vn -0.8863 -0.4614 -0.0402
vn -0.8863 -0.4614 -0.0401
vn -0.8862 -0.4613 -0.0426
vn -0.8813 -0.4716 -0.0305
vn -0.7976 -0.6030 -0.0179
vn -0.7975 -0.6029 -0.0206
vn 0.4547 0.3593 -0.8150
vn 0.4548 0.3593 -0.8149
vn 0.4551 0.3596 -0.8146
vn 0.2639 -0.9643 -0.0219
vn -0.6592 -0.4889 0.5713
vn -0.6591 -0.4888 0.5715
vn -0.2823 -0.1669 0.9447
vn 0.0888 -0.9945 -0.0563
vn 0.0323 0.0202 -0.9993
vn 0.0329 0.0206 -0.9992
vn 0.0313 0.0196 -0.9993
vn -0.5006 0.8656 0.0127
vn 0.0331 0.0207 -0.9992
vn -0.2685 -0.1587 0.9501
vn -0.6593 -0.4890 0.5711
vn 0.4543 0.3590 -0.8153
vn -0.7976 -0.6030 -0.0152
vn -0.8753 -0.4817 -0.0434
vn -0.8753 -0.4818 -0.0410
vn -0.8753 -0.4818 -0.0409
vn -0.8452 -0.5271 -0.0880
vn -0.8804 -0.4735 -0.0265
vn -0.8803 -0.4742 -0.0148
vn -0.8802 -0.4739 -0.0263
vn 0.8806 -0.4736 -0.0146
vn 0.1513 -0.9883 -0.0189
vn 0.1320 -0.9757 -0.1748
vn 0.8412 -0.5247 -0.1306
vn 0.1453 -0.9866 -0.0736
vn 0.8754 -0.4818 -0.0385
vn 0.8806 -0.4712 -0.0507
vn 0.8864 -0.4614 -0.0377
vn -0.8806 -0.4736 -0.0146
vn -0.1513 -0.9883 -0.0189
vn -0.1320 -0.9757 -0.1748
vn -0.8412 -0.5247 -0.1306
vn -0.1453 -0.9866 -0.0736
vn -0.8754 -0.4818 -0.0385
vn -0.8806 -0.4712 -0.0507
vn -0.8864 -0.4614 -0.0377
usemtl blue
s 1
f 8/1/1 6/2/1 10/3/1 11/4/1
f 11/4/2 10/3/2 16/5/2 17/6/2
f 18/7/3 19/8/3 20/9/3 21/10/3
f 22/11/4 23/12/4 24/13/4 25/14/4
f 16/5/5 31/15/5 30/16/5 29/17/5
f 10/3/6 32/18/6 31/15/6 16/5/6
f 6/2/7 5/19/7 32/18/7 10/3/7
f 25/20/8 24/21/8 33/22/8 34/23/8
f 23/24/9 35/25/9 33/22/9 24/21/9
f 35/26/10 36/27/10 34/28/10 33/29/10
f 29/30/11 28/31/11 36/27/11 35/26/11
f 16/5/12 29/17/12 35/25/12 23/24/12
f 17/32/13 16/33/13 23/12/13 22/11/13
f 37/34/14 38/35/15 32/36/15 4/37/16
f 38/35/17 42/38/17 31/39/17 32/36/17
f 43/40/18 44/41/19 45/42/19 46/43/18
f 47/44/20 18/45/21 21/46/21 46/47/22
f 48/48/23 49/49/23 45/50/23 44/51/23
f 50/52/24 48/53/25 44/54/25 43/55/24
f 37/56/26 41/57/26 48/53/26 50/52/26
f 41/57/27 40/58/27 49/59/27 48/53/27
f 39/60/28 42/61/29 18/45/29 47/44/30
f 42/62/31 38/63/31 19/8/31 18/7/31
f 40/64/32 39/60/28 47/44/30 49/65/32
f 38/66/33 37/56/33 50/52/33 19/67/33
f 19/67/34 50/52/24 43/55/24 20/68/34
f 49/65/35 47/44/20 46/47/22 45/69/35
f 20/70/36 43/40/18 46/43/18 21/71/36
f 42/38/37 39/72/38 26/73/39 31/39/37
f 31/39/40 26/73/40 27/74/40 30/75/40
f 5/76/41 1/77/42 4/37/43 32/36/41
f 8/78/44 11/79/44 57/80/44 56/81/44
f 11/79/45 17/32/45 60/82/45 57/80/45
f 61/83/46 62/84/46 63/85/46 64/86/46
f 22/11/47 25/14/47 65/87/47 66/88/47
f 60/82/48 69/89/48 70/90/48 71/91/48
f 57/80/49 60/82/49 71/91/49 72/92/49
f 56/81/50 57/80/50 72/92/50 55/93/50
f 25/14/51 34/94/51 73/95/51 65/87/51
f 66/96/52 65/97/52 73/98/52 74/99/52
f 74/100/53 73/101/53 34/28/53 36/27/53
f 69/102/54 74/100/54 36/27/54 28/31/54
f 60/82/55 66/88/55 74/103/55 69/89/55
f 17/32/56 22/11/56 66/88/56 60/82/56
f 75/104/57 52/105/58 72/106/59 76/107/59
f 76/107/60 72/106/60 71/108/60 80/109/60
f 81/110/61 82/111/61 83/112/62 84/113/62
f 85/114/63 82/115/64 62/116/65 61/117/65
f 86/118/66 84/119/66 83/120/66 87/121/66
f 88/122/67 81/110/67 84/113/68 86/123/68
f 75/124/69 88/125/69 86/118/69 79/126/69
f 79/126/70 86/118/70 87/121/70 78/127/70
f 77/128/71 85/114/72 61/117/73 80/129/73
f 80/130/74 61/83/74 64/86/74 76/131/74
f 78/132/75 87/133/75 85/114/72 77/128/71
f 76/134/76 64/135/76 88/125/76 75/124/76
f 64/136/77 63/137/77 81/110/67 88/122/67
f 87/133/78 83/138/78 82/115/64 85/114/63
f 63/137/79 62/139/79 82/111/61 81/110/61
f 80/109/80 71/108/80 67/140/81 77/141/82
f 71/108/83 70/142/83 68/143/83 67/140/83
f 55/144/84 72/106/84 52/105/85 51/145/86
usemtl paleblue
f 1/77/42 2/146/87 3/147/87 4/37/43
f 2/148/88 7/149/88 9/150/88 3/151/88
f 12/152/89 13/153/89 14/154/89 15/155/89
f 26/73/90 12/156/90 15/157/90 27/74/90
f 9/150/91 13/153/91 12/152/91 3/151/91
f 39/72/38 40/158/92 12/156/92 26/73/39
f 40/158/93 41/159/93 3/147/93 12/156/93
f 41/159/94 37/34/14 4/37/16 3/147/94
f 51/145/86 52/105/85 53/160/95 54/161/95
f 54/162/96 53/163/96 9/150/96 7/149/96
f 58/164/97 59/165/97 14/166/97 13/167/97
f 67/140/98 68/143/98 59/165/98 58/164/98
f 9/168/99 53/160/99 58/164/99 13/167/99
f 77/141/82 67/140/81 58/164/100 78/169/100
f 78/169/101 58/164/101 53/160/101 79/170/101
f 79/170/102 53/160/102 52/105/58 75/104/57
