{"accessors":[{"name":"Cylinder.001-Mesh_positions","componentType":5126,"count":658,"min":[-0.3321850001811981,0.018511999398469925,-0.743602991104126],"max":[0.3774929940700531,0.11089500039815903,0.25924500823020935],"type":"VEC3","bufferView":0,"byteOffset":0},{"name":"Cylinder.001-Mesh_normals","componentType":5126,"count":658,"min":[-1,-1,-0.995199978351593],"max":[0.995199978351593,1,1],"type":"VEC3","bufferView":0,"byteOffset":7896},{"name":"Cylinder.001-Mesh_0_indices","componentType":5123,"count":162,"min":[0],"max":[77],"type":"SCALAR","bufferView":1,"byteOffset":0},{"name":"Cylinder.001-Mesh_1_indices","componentType":5123,"count":84,"min":[25],"max":[113],"type":"SCALAR","bufferView":1,"byteOffset":324},{"name":"Cylinder.001-Mesh_2_indices","componentType":5123,"count":1026,"min":[114],"max":[657],"type":"SCALAR","bufferView":1,"byteOffset":492}],"asset":{"generator":"obj2gltf","version":"2.0"},"buffers":[{"name":"Pizza_slice","byteLength":18336,"uri":"data:application/octet-stream;base64,"}],"bufferViews":[{"name":"bufferView_0","buffer":0,"byteLength":15792,"byteOffset":0,"byteStride":12,"target":34962},{"name":"bufferView_1","buffer":0,"byteLength":2544,"byteOffset":15792,"target":34963}],"materials":[{"name":"Material.001","pbrMetallicRoughness":{"baseColorFactor":[0.793583,0.8,0.202557,1],"metallicFactor":0,"roughnessFactor":0.903921569},"emissiveFactor":[0,0,0],"alphaMode":"OPAQUE","doubleSided":false},{"name":"Material.002","pbrMetallicRoughness":{"baseColorFactor":[0.64,0.326378,0.06949,1],"metallicFactor":0,"roughnessFactor":0.903921569},"emissiveFactor":[0,0,0],"alphaMode":"OPAQUE","doubleSided":false},{"name":"Material.003","pbrMetallicRoughness":{"baseColorFactor":[0.422175,0,0.00367,1],"metallicFactor":0,"roughnessFactor":0.903921569},"emissiveFactor":[0,0,0],"alphaMode":"OPAQUE","doubleSided":false}],"meshes":[{"name":"Cylinder.001-Mesh","primitives":[{"attributes":{"POSITION":0,"NORMAL":1},"indices":2,"material":0,"mode":4},{"attributes":{"POSITION":0,"NORMAL":1},"indices":3,"material":1,"mode":4},{"attributes":{"POSITION":0,"NORMAL":1},"indices":4,"material":2,"mode":4}]}],"nodes":[{"name":"Cylinder.001","mesh":0}],"scene":0,"scenes":[{"nodes":[0]}]}
