# Blender v2.79 (sub 0) OBJ File: 'Pizza2.blend'
# www.blender.org
mtllib Pizza_slice.mtl
o Cylinder.001
v 0.374922 0.018512 -0.033648
v 0.374922 0.110895 -0.033648
v 0.223385 0.018512 0.090715
v 0.223385 0.110895 0.090715
v 0.050498 0.018512 0.183124
v 0.050498 0.110895 0.183124
v -0.137095 0.018512 0.240030
v -0.137095 0.110895 0.240030
v -0.332185 0.018512 0.259245
v -0.332185 0.110895 0.259245
v -0.332185 0.037620 -0.740756
v -0.332185 0.018512 -0.743603
v 0.377493 0.018512 -0.036781
v 0.374733 0.018512 -0.033494
v 0.289706 0.092507 -0.134217
v -0.332185 0.094161 0.146755
v 0.147187 0.110895 -0.000522
v 0.001527 0.110895 0.071193
v -0.162246 0.110895 0.125896
v -0.332185 0.095000 0.146755
v -0.332185 0.059777 -0.740756
v 0.289858 0.092161 -0.134245
v 0.147187 0.110895 -0.000522
v 0.001527 0.110895 0.071193
v -0.162246 0.110895 0.125896
v 0.249391 0.089196 -0.159180
v -0.170827 0.075039 0.093621
v -0.008375 0.079831 0.037509
v 0.118669 0.083638 -0.024661
v -0.214436 0.087146 -0.150464
v -0.214436 0.096182 -0.150464
v -0.194387 0.087146 -0.148489
v -0.194387 0.096182 -0.148489
v -0.175108 0.087146 -0.142641
v -0.175108 0.096182 -0.142641
v -0.157341 0.087146 -0.133144
v -0.157341 0.096182 -0.133144
v -0.141767 0.087146 -0.120363
v -0.141767 0.096182 -0.120363
v -0.128987 0.087146 -0.104790
v -0.128987 0.096182 -0.104790
v -0.119490 0.087146 -0.087023
v -0.119490 0.096182 -0.087023
v -0.113642 0.087146 -0.067744
v -0.113642 0.096182 -0.067744
v -0.111667 0.087146 -0.047694
v -0.111667 0.096182 -0.047694
v -0.113642 0.087146 -0.027645
v -0.113642 0.096182 -0.027645
v -0.119490 0.087146 -0.008366
v -0.119490 0.096182 -0.008366
v -0.128987 0.087146 0.009401
v -0.128987 0.096182 0.009401
v -0.141767 0.087146 0.024975
v -0.141767 0.096182 0.024975
v -0.157341 0.087146 0.037755
v -0.157341 0.096182 0.037755
v -0.175108 0.087146 0.047252
v -0.175108 0.096182 0.047252
v -0.194387 0.087146 0.053100
v -0.194387 0.096182 0.053100
v -0.214436 0.087146 0.055075
v -0.214436 0.096182 0.055075
v -0.234486 0.087146 0.053100
v -0.234486 0.096182 0.053100
v -0.253765 0.087146 0.047252
v -0.253765 0.096182 0.047252
v -0.271532 0.087146 0.037755
v -0.271532 0.096182 0.037755
v -0.287105 0.087146 0.024975
v -0.287105 0.096182 0.024975
v -0.299886 0.087146 0.009401
v -0.299886 0.096182 0.009401
v -0.309383 0.087146 -0.008366
v -0.309383 0.096182 -0.008366
v -0.315231 0.087146 -0.027645
v -0.315231 0.096182 -0.027645
v -0.317206 0.087146 -0.047694
v -0.317206 0.096182 -0.047694
v -0.315231 0.087146 -0.067744
v -0.315231 0.096182 -0.067744
v -0.309383 0.087146 -0.087023
v -0.309383 0.096182 -0.087023
v -0.299886 0.087146 -0.104790
v -0.299886 0.096182 -0.104790
v -0.287105 0.087146 -0.120363
v -0.287105 0.096182 -0.120363
v -0.271532 0.087146 -0.133144
v -0.271532 0.096182 -0.133144
v -0.253764 0.087146 -0.142641
v -0.253764 0.096182 -0.142641
v -0.234486 0.087146 -0.148489
v -0.234486 0.096182 -0.148489
v -0.154226 0.069553 -0.536092
v -0.154226 0.082905 -0.534164
v -0.135210 0.069553 -0.534219
v -0.135586 0.082905 -0.532328
v -0.116925 0.069553 -0.528672
v -0.117662 0.082905 -0.526891
v -0.100073 0.069553 -0.519665
v -0.101144 0.082905 -0.518062
v -0.085302 0.069553 -0.507543
v -0.086665 0.082905 -0.506180
v -0.073180 0.069553 -0.492772
v -0.074783 0.082905 -0.491701
v -0.064173 0.069553 -0.475920
v -0.065954 0.082905 -0.475183
v -0.058626 0.069553 -0.457635
v -0.060516 0.082905 -0.457259
v -0.056753 0.069553 -0.438619
v -0.058681 0.082905 -0.438619
v -0.058626 0.069553 -0.419603
v -0.060516 0.082905 -0.419979
v -0.064173 0.069553 -0.401318
v -0.065953 0.082905 -0.402056
v -0.073180 0.069553 -0.384466
v -0.074783 0.082905 -0.385537
v -0.085302 0.069553 -0.369695
v -0.086665 0.082905 -0.371058
v -0.100073 0.069553 -0.357573
v -0.101144 0.082905 -0.359176
v -0.116925 0.069553 -0.348566
v -0.117662 0.082905 -0.350347
v -0.135210 0.069553 -0.343019
v -0.135586 0.082905 -0.344910
v -0.154226 0.069553 -0.341146
v -0.154226 0.082905 -0.343074
v -0.173242 0.069553 -0.343019
v -0.172866 0.082905 -0.344910
v -0.191527 0.069553 -0.348566
v -0.190789 0.082905 -0.350347
v -0.208379 0.069553 -0.357573
v -0.207308 0.082905 -0.359176
v -0.223149 0.069553 -0.369695
v -0.221787 0.082905 -0.371058
v -0.235271 0.069553 -0.384466
v -0.233669 0.082905 -0.385537
v -0.244279 0.069553 -0.401318
v -0.242498 0.082905 -0.402056
v -0.249826 0.069553 -0.419603
v -0.247935 0.082905 -0.419979
v -0.251699 0.069553 -0.438619
v -0.249771 0.082905 -0.438619
v -0.249826 0.069553 -0.457635
v -0.247935 0.082905 -0.457259
v -0.244279 0.069553 -0.475920
v -0.242498 0.082905 -0.475183
v -0.235271 0.069553 -0.492772
v -0.233669 0.082905 -0.491701
v -0.223149 0.069553 -0.507543
v -0.221786 0.082905 -0.506180
v -0.208379 0.069553 -0.519665
v -0.207308 0.082905 -0.518062
v -0.191527 0.069553 -0.528672
v -0.190789 0.082905 -0.526891
v -0.173242 0.069553 -0.534219
v -0.172866 0.082905 -0.532328
v 0.022003 0.088490 -0.276618
v 0.022003 0.102017 -0.276618
v 0.038703 0.088490 -0.274973
v 0.038703 0.102017 -0.274973
v 0.054761 0.088490 -0.270102
v 0.054761 0.102017 -0.270102
v 0.069560 0.088490 -0.262191
v 0.069560 0.102017 -0.262191
v 0.082532 0.088490 -0.251545
v 0.082532 0.102017 -0.251545
v 0.093178 0.088490 -0.238574
v 0.093178 0.102017 -0.238574
v 0.101088 0.088490 -0.223774
v 0.101088 0.102017 -0.223774
v 0.105960 0.088490 -0.207716
v 0.105960 0.102017 -0.207716
v 0.107604 0.088490 -0.191016
v 0.107604 0.102017 -0.191016
v 0.105960 0.088490 -0.174316
v 0.105960 0.102017 -0.174316
v 0.101088 0.088490 -0.158257
v 0.101088 0.102017 -0.158257
v 0.093178 0.088490 -0.143458
v 0.093178 0.102017 -0.143458
v 0.082532 0.088490 -0.130486
v 0.082532 0.102017 -0.130486
v 0.069560 0.088490 -0.119841
v 0.069560 0.102017 -0.119841
v 0.054761 0.088490 -0.111930
v 0.054761 0.102017 -0.111930
v 0.038703 0.088490 -0.107059
v 0.038703 0.102017 -0.107059
v 0.022003 0.088490 -0.105414
v 0.022003 0.102017 -0.105414
v 0.005302 0.088490 -0.107059
v 0.005302 0.102017 -0.107059
v -0.010756 0.088490 -0.111930
v -0.010756 0.102017 -0.111930
v -0.025555 0.088490 -0.119841
v -0.025555 0.102017 -0.119841
v -0.038527 0.088490 -0.130486
v -0.038527 0.102017 -0.130486
v -0.049173 0.088490 -0.143458
v -0.049173 0.102017 -0.143458
v -0.057083 0.088490 -0.158258
v -0.057083 0.102017 -0.158258
v -0.061954 0.088490 -0.174316
v -0.061954 0.102017 -0.174316
v -0.063599 0.088490 -0.191016
v -0.063599 0.102017 -0.191016
v -0.061954 0.088490 -0.207716
v -0.061954 0.102017 -0.207716
v -0.057083 0.088490 -0.223774
v -0.057083 0.102017 -0.223774
v -0.049173 0.088490 -0.238574
v -0.049173 0.102017 -0.238574
v -0.038527 0.088490 -0.251546
v -0.038527 0.102017 -0.251546
v -0.025555 0.088490 -0.262191
v -0.025555 0.102017 -0.262191
v -0.010756 0.088490 -0.270102
v -0.010756 0.102017 -0.270102
v 0.005303 0.088490 -0.274973
v 0.005303 0.102017 -0.274973
vn 0.6344 0.0000 0.7730
vn 0.4714 0.0000 0.8819
vn 0.2903 0.0000 0.9569
vn 0.0980 0.0000 0.9952
vn -0.6801 -0.2437 -0.6915
vn 0.1218 0.0000 0.9926
vn -1.0000 0.0000 -0.0000
vn 0.0000 0.0000 1.0000
vn 0.6127 0.4467 -0.6520
vn -0.0007 0.9999 -0.0166
vn 0.0000 -1.0000 0.0000
vn -0.0160 0.9991 -0.0396
vn 0.7120 -0.0467 -0.7006
vn -0.2371 0.8079 -0.5395
vn 0.0980 0.0000 -0.9952
vn 0.2903 0.0000 -0.9569
vn 0.4714 0.0000 -0.8819
vn 0.6344 0.0000 -0.7730
vn 0.7730 0.0000 -0.6344
vn 0.8819 0.0000 -0.4714
vn 0.9569 0.0000 -0.2903
vn 0.9952 0.0000 -0.0980
vn 0.9952 0.0000 0.0980
vn 0.9569 0.0000 0.2903
vn 0.8819 0.0000 0.4714
vn 0.7730 0.0000 0.6344
vn -0.0980 0.0000 0.9952
vn -0.2903 0.0000 0.9569
vn -0.4714 0.0000 0.8819
vn -0.6344 0.0000 0.7730
vn -0.7730 0.0000 0.6344
vn -0.8819 0.0000 0.4714
vn -0.9569 0.0000 0.2903
vn -0.9952 0.0000 0.0980
vn -0.9952 0.0000 -0.0980
vn -0.9569 0.0000 -0.2903
vn -0.8819 0.0000 -0.4714
vn -0.7730 0.0000 -0.6344
vn -0.6344 0.0000 -0.7730
vn -0.4714 0.0000 -0.8819
vn 0.0000 1.0000 0.0000
vn -0.2903 0.0000 -0.9569
vn -0.0980 0.0000 -0.9952
vn 0.0970 0.1422 -0.9851
vn 0.2873 0.1422 -0.9472
vn 0.4666 0.1422 -0.8730
vn 0.6279 0.1422 -0.7652
vn 0.7652 0.1422 -0.6279
vn 0.8730 0.1422 -0.4666
vn 0.9472 0.1422 -0.2873
vn 0.9851 0.1422 -0.0970
vn 0.9851 0.1422 0.0970
vn 0.9472 0.1422 0.2873
vn 0.8730 0.1422 0.4666
vn 0.7652 0.1422 0.6279
vn 0.6279 0.1422 0.7652
vn 0.4666 0.1422 0.8730
vn 0.2873 0.1422 0.9472
vn 0.0970 0.1422 0.9851
vn -0.0970 0.1422 0.9851
vn -0.2873 0.1422 0.9472
vn -0.4666 0.1422 0.8730
vn -0.6279 0.1422 0.7652
vn -0.7652 0.1422 0.6279
vn -0.8730 0.1422 0.4666
vn -0.9472 0.1422 0.2873
vn -0.9851 0.1422 0.0970
vn -0.9851 0.1422 -0.0970
vn -0.9472 0.1422 -0.2873
vn -0.8730 0.1422 -0.4666
vn -0.7652 0.1422 -0.6279
vn -0.6279 0.1422 -0.7652
vn -0.4666 0.1422 -0.8730
vn -0.2873 0.1422 -0.9472
vn -0.0970 0.1422 -0.9851
usemtl Material.001
s off
f 1//1 2//1 4//1 3//1 14//1
f 3//2 4//2 6//2 5//2
f 5//3 6//3 8//3 7//3
f 7//4 8//4 10//4 9//4
f 17//5 15//5 22//5 23//5
f 16//6 19//6 25//6 20//6
f 11//7 16//7 20//7 21//7
f 18//8 17//8 23//8 24//8
f 15//9 11//9 21//9 26//9 22//9
f 19//8 18//8 24//8 25//8
f 27//10 28//10 29//10 26//10 21//10 20//10
f 30//11 32//11 34//11 36//11 38//11 40//11 42//11 44//11 46//11 48//11 50//11 52//11 54//11 56//11 58//11 60//11 62//11 64//11 66//11 68//11 70//11 72//11 74//11 76//11 78//11 80//11 82//11 84//11 86//11 88//11 90//11 92//11
usemtl Material.002
f 2//12 15//12 17//12 18//12 19//12 16//12 10//12 8//12 6//12 4//12
f 9//11 12//11 13//11 1//11 14//11 3//11 5//11 7//11
f 13//13 12//13 11//13 15//13 2//13 1//13
f 9//7 10//7 16//7 11//7 12//7
f 20//14 25//14 24//14 23//14 22//14 26//14 29//14 28//14 27//14
usemtl Material.003
f 30//15 31//15 33//15 32//15
f 32//16 33//16 35//16 34//16
f 34//17 35//17 37//17 36//17
f 36//18 37//18 39//18 38//18
f 38//19 39//19 41//19 40//19
f 40//20 41//20 43//20 42//20
f 42//21 43//21 45//21 44//21
f 44//22 45//22 47//22 46//22
f 46//23 47//23 49//23 48//23
f 48//24 49//24 51//24 50//24
f 50//25 51//25 53//25 52//25
f 52//26 53//26 55//26 54//26
f 54//1 55//1 57//1 56//1
f 56//2 57//2 59//2 58//2
f 58//3 59//3 61//3 60//3
f 60//4 61//4 63//4 62//4
f 62//27 63//27 65//27 64//27
f 64//28 65//28 67//28 66//28
f 66//29 67//29 69//29 68//29
f 68//30 69//30 71//30 70//30
f 70//31 71//31 73//31 72//31
f 72//32 73//32 75//32 74//32
f 74//33 75//33 77//33 76//33
f 76//34 77//34 79//34 78//34
f 78//35 79//35 81//35 80//35
f 80//36 81//36 83//36 82//36
f 82//37 83//37 85//37 84//37
f 84//38 85//38 87//38 86//38
f 86//39 87//39 89//39 88//39
f 88//40 89//40 91//40 90//40
f 33//41 31//41 93//41 91//41 89//41 87//41 85//41 83//41 81//41 79//41 77//41 75//41 73//41 71//41 69//41 67//41 65//41 63//41 61//41 59//41 57//41 55//41 53//41 51//41 49//41 47//41 45//41 43//41 41//41 39//41 37//41 35//41
f 90//42 91//42 93//42 92//42
f 92//43 93//43 31//43 30//43
f 94//44 95//44 97//44 96//44
f 198//31 199//31 201//31 200//31
f 176//24 177//24 179//24 178//24
f 96//45 97//45 99//45 98//45
f 196//30 197//30 199//30 198//30
f 98//46 99//46 101//46 100//46
f 100//47 101//47 103//47 102//47
f 174//23 175//23 177//23 176//23
f 102//48 103//48 105//48 104//48
f 194//29 195//29 197//29 196//29
f 104//49 105//49 107//49 106//49
f 106//50 107//50 109//50 108//50
f 172//22 173//22 175//22 174//22
f 108//51 109//51 111//51 110//51
f 192//28 193//28 195//28 194//28
f 110//52 111//52 113//52 112//52
f 112//53 113//53 115//53 114//53
f 170//21 171//21 173//21 172//21
f 114//54 115//54 117//54 116//54
f 190//27 191//27 193//27 192//27
f 116//55 117//55 119//55 118//55
f 118//56 119//56 121//56 120//56
f 168//20 169//20 171//20 170//20
f 120//57 121//57 123//57 122//57
f 188//4 189//4 191//4 190//4
f 122//58 123//58 125//58 124//58
f 124//59 125//59 127//59 126//59
f 166//19 167//19 169//19 168//19
f 126//60 127//60 129//60 128//60
f 186//3 187//3 189//3 188//3
f 128//61 129//61 131//61 130//61
f 130//62 131//62 133//62 132//62
f 164//18 165//18 167//18 166//18
f 132//63 133//63 135//63 134//63
f 184//2 185//2 187//2 186//2
f 134//64 135//64 137//64 136//64
f 136//65 137//65 139//65 138//65
f 162//17 163//17 165//17 164//17
f 138//66 139//66 141//66 140//66
f 182//1 183//1 185//1 184//1
f 140//67 141//67 143//67 142//67
f 142//68 143//68 145//68 144//68
f 160//16 161//16 163//16 162//16
f 144//69 145//69 147//69 146//69
f 180//26 181//26 183//26 182//26
f 146//70 147//70 149//70 148//70
f 148//71 149//71 151//71 150//71
f 158//15 159//15 161//15 160//15
f 150//72 151//72 153//72 152//72
f 178//25 179//25 181//25 180//25
f 152//73 153//73 155//73 154//73
f 97//41 95//41 157//41 155//41 153//41 151//41 149//41 147//41 145//41 143//41 141//41 139//41 137//41 135//41 133//41 131//41 129//41 127//41 125//41 123//41 121//41 119//41 117//41 115//41 113//41 111//41 109//41 107//41 105//41 103//41 101//41 99//41
f 154//74 155//74 157//74 156//74
f 156//75 157//75 95//75 94//75
f 94//11 96//11 98//11 100//11 102//11 104//11 106//11 108//11 110//11 112//11 114//11 116//11 118//11 120//11 122//11 124//11 126//11 128//11 130//11 132//11 134//11 136//11 138//11 140//11 142//11 144//11 146//11 148//11 150//11 152//11 154//11 156//11
f 200//32 201//32 203//32 202//32
f 202//33 203//33 205//33 204//33
f 204//34 205//34 207//34 206//34
f 206//35 207//35 209//35 208//35
f 208//36 209//36 211//36 210//36
f 210//37 211//37 213//37 212//37
f 212//38 213//38 215//38 214//38
f 214//39 215//39 217//39 216//39
f 216//40 217//40 219//40 218//40
f 178//11 180//11 182//11 184//11 186//11 188//11 190//11 192//11 194//11 196//11 198//11 200//11 202//11 204//11 206//11 208//11 210//11 212//11 214//11 216//11 218//11 220//11 158//11 160//11 162//11 164//11 166//11 168//11 170//11 172//11 174//11 176//11
f 218//42 219//42 221//42 220//42
f 220//43 221//43 159//43 158//43
f 201//41 199//41 197//41 195//41 193//41 191//41 189//41 187//41 185//41 183//41 181//41 179//41 177//41 175//41 173//41 171//41 169//41 167//41 165//41 163//41 161//41 159//41 221//41 219//41 217//41 215//41 213//41 211//41 209//41 207//41 205//41 203//41
